<mxfile host="app.diagrams.net" agent="Mozilla/5.0 (Windows NT 10.0; Win64; x64) AppleWebKit/537.36 (KHTML, like Gecko) Chrome/132.0.0.0 Safari/537.36 Edg/132.0.0.0" version="26.0.9">
  <diagram name="Pagina-1" id="uKc1JaNAO21yNDpdGUNW">
    <mxGraphModel dx="2605" dy="1413" grid="1" gridSize="10" guides="1" tooltips="1" connect="1" arrows="1" fold="1" page="1" pageScale="1" pageWidth="827" pageHeight="1169" math="0" shadow="0">
      <root>
        <mxCell id="0" />
        <mxCell id="1" parent="0" />
        <mxCell id="z59xVNprrhD9sg6fMXi5-7" style="edgeStyle=orthogonalEdgeStyle;rounded=0;orthogonalLoop=1;jettySize=auto;html=1;entryX=0.5;entryY=0;entryDx=0;entryDy=0;" edge="1" parent="1" source="z59xVNprrhD9sg6fMXi5-1" target="z59xVNprrhD9sg6fMXi5-2">
          <mxGeometry relative="1" as="geometry" />
        </mxCell>
        <mxCell id="z59xVNprrhD9sg6fMXi5-1" value="START" style="ellipse;whiteSpace=wrap;html=1;" vertex="1" parent="1">
          <mxGeometry x="320" y="40" width="120" height="80" as="geometry" />
        </mxCell>
        <mxCell id="z59xVNprrhD9sg6fMXi5-8" style="edgeStyle=orthogonalEdgeStyle;rounded=0;orthogonalLoop=1;jettySize=auto;html=1;entryX=0.5;entryY=0;entryDx=0;entryDy=0;" edge="1" parent="1" source="z59xVNprrhD9sg6fMXi5-2" target="z59xVNprrhD9sg6fMXi5-3">
          <mxGeometry relative="1" as="geometry" />
        </mxCell>
        <mxCell id="z59xVNprrhD9sg6fMXi5-2" value="i = 0" style="rounded=0;whiteSpace=wrap;html=1;" vertex="1" parent="1">
          <mxGeometry x="320" y="160" width="120" height="60" as="geometry" />
        </mxCell>
        <mxCell id="z59xVNprrhD9sg6fMXi5-10" style="edgeStyle=orthogonalEdgeStyle;rounded=0;orthogonalLoop=1;jettySize=auto;html=1;entryX=0.5;entryY=0;entryDx=0;entryDy=0;" edge="1" parent="1" source="z59xVNprrhD9sg6fMXi5-3" target="z59xVNprrhD9sg6fMXi5-4">
          <mxGeometry relative="1" as="geometry" />
        </mxCell>
        <mxCell id="z59xVNprrhD9sg6fMXi5-3" value="positivi = 0" style="rounded=0;whiteSpace=wrap;html=1;" vertex="1" parent="1">
          <mxGeometry x="320" y="260" width="120" height="60" as="geometry" />
        </mxCell>
        <mxCell id="z59xVNprrhD9sg6fMXi5-11" style="edgeStyle=orthogonalEdgeStyle;rounded=0;orthogonalLoop=1;jettySize=auto;html=1;" edge="1" parent="1" source="z59xVNprrhD9sg6fMXi5-4" target="z59xVNprrhD9sg6fMXi5-5">
          <mxGeometry relative="1" as="geometry" />
        </mxCell>
        <mxCell id="z59xVNprrhD9sg6fMXi5-4" value="negativi = 0" style="rounded=0;whiteSpace=wrap;html=1;" vertex="1" parent="1">
          <mxGeometry x="320" y="360" width="120" height="60" as="geometry" />
        </mxCell>
        <mxCell id="z59xVNprrhD9sg6fMXi5-12" style="edgeStyle=orthogonalEdgeStyle;rounded=0;orthogonalLoop=1;jettySize=auto;html=1;entryX=0.5;entryY=0;entryDx=0;entryDy=0;" edge="1" parent="1" source="z59xVNprrhD9sg6fMXi5-5" target="z59xVNprrhD9sg6fMXi5-6">
          <mxGeometry relative="1" as="geometry" />
        </mxCell>
        <mxCell id="z59xVNprrhD9sg6fMXi5-5" value="positivi_maggiori = 0" style="rounded=0;whiteSpace=wrap;html=1;" vertex="1" parent="1">
          <mxGeometry x="320" y="460" width="120" height="60" as="geometry" />
        </mxCell>
        <mxCell id="z59xVNprrhD9sg6fMXi5-15" style="edgeStyle=orthogonalEdgeStyle;rounded=0;orthogonalLoop=1;jettySize=auto;html=1;entryX=0.5;entryY=0;entryDx=0;entryDy=0;" edge="1" parent="1" source="z59xVNprrhD9sg6fMXi5-6" target="z59xVNprrhD9sg6fMXi5-14">
          <mxGeometry relative="1" as="geometry" />
        </mxCell>
        <mxCell id="z59xVNprrhD9sg6fMXi5-6" value="negativi_minori = 0" style="rounded=0;whiteSpace=wrap;html=1;" vertex="1" parent="1">
          <mxGeometry x="320" y="560" width="120" height="60" as="geometry" />
        </mxCell>
        <mxCell id="z59xVNprrhD9sg6fMXi5-17" style="edgeStyle=orthogonalEdgeStyle;rounded=0;orthogonalLoop=1;jettySize=auto;html=1;entryX=0.5;entryY=0;entryDx=0;entryDy=0;" edge="1" parent="1" source="z59xVNprrhD9sg6fMXi5-14" target="z59xVNprrhD9sg6fMXi5-16">
          <mxGeometry relative="1" as="geometry" />
        </mxCell>
        <mxCell id="z59xVNprrhD9sg6fMXi5-18" value="TRUE" style="edgeLabel;html=1;align=center;verticalAlign=middle;resizable=0;points=[];" vertex="1" connectable="0" parent="z59xVNprrhD9sg6fMXi5-17">
          <mxGeometry x="-0.23" y="-3" relative="1" as="geometry">
            <mxPoint x="3" as="offset" />
          </mxGeometry>
        </mxCell>
        <mxCell id="z59xVNprrhD9sg6fMXi5-81" style="edgeStyle=orthogonalEdgeStyle;rounded=0;orthogonalLoop=1;jettySize=auto;html=1;" edge="1" parent="1" source="z59xVNprrhD9sg6fMXi5-14">
          <mxGeometry relative="1" as="geometry">
            <mxPoint x="240" y="700" as="targetPoint" />
          </mxGeometry>
        </mxCell>
        <mxCell id="z59xVNprrhD9sg6fMXi5-82" value="FALSE" style="edgeLabel;html=1;align=center;verticalAlign=middle;resizable=0;points=[];" vertex="1" connectable="0" parent="z59xVNprrhD9sg6fMXi5-81">
          <mxGeometry x="-0.1007" y="1" relative="1" as="geometry">
            <mxPoint as="offset" />
          </mxGeometry>
        </mxCell>
        <mxCell id="z59xVNprrhD9sg6fMXi5-14" value="i &amp;lt; 10" style="rhombus;whiteSpace=wrap;html=1;" vertex="1" parent="1">
          <mxGeometry x="320" y="660" width="120" height="80" as="geometry" />
        </mxCell>
        <mxCell id="z59xVNprrhD9sg6fMXi5-22" style="edgeStyle=orthogonalEdgeStyle;rounded=0;orthogonalLoop=1;jettySize=auto;html=1;entryX=0.5;entryY=0;entryDx=0;entryDy=0;" edge="1" parent="1" source="z59xVNprrhD9sg6fMXi5-16">
          <mxGeometry relative="1" as="geometry">
            <mxPoint x="380" y="880" as="targetPoint" />
          </mxGeometry>
        </mxCell>
        <mxCell id="z59xVNprrhD9sg6fMXi5-16" value="i += 1" style="rounded=0;whiteSpace=wrap;html=1;" vertex="1" parent="1">
          <mxGeometry x="320" y="780" width="120" height="60" as="geometry" />
        </mxCell>
        <mxCell id="z59xVNprrhD9sg6fMXi5-27" style="edgeStyle=orthogonalEdgeStyle;rounded=0;orthogonalLoop=1;jettySize=auto;html=1;entryX=0.5;entryY=0;entryDx=0;entryDy=0;" edge="1" parent="1" source="z59xVNprrhD9sg6fMXi5-23" target="z59xVNprrhD9sg6fMXi5-25">
          <mxGeometry relative="1" as="geometry" />
        </mxCell>
        <mxCell id="z59xVNprrhD9sg6fMXi5-23" value="Read n" style="shape=parallelogram;perimeter=parallelogramPerimeter;whiteSpace=wrap;html=1;fixedSize=1;" vertex="1" parent="1">
          <mxGeometry x="320" y="880" width="120" height="60" as="geometry" />
        </mxCell>
        <mxCell id="z59xVNprrhD9sg6fMXi5-28" style="edgeStyle=orthogonalEdgeStyle;rounded=0;orthogonalLoop=1;jettySize=auto;html=1;" edge="1" parent="1" source="z59xVNprrhD9sg6fMXi5-25">
          <mxGeometry relative="1" as="geometry">
            <mxPoint x="520" y="1020" as="targetPoint" />
          </mxGeometry>
        </mxCell>
        <mxCell id="z59xVNprrhD9sg6fMXi5-29" value="TRUE" style="edgeLabel;html=1;align=center;verticalAlign=middle;resizable=0;points=[];" vertex="1" connectable="0" parent="z59xVNprrhD9sg6fMXi5-28">
          <mxGeometry x="0.0363" y="1" relative="1" as="geometry">
            <mxPoint x="-1" y="1" as="offset" />
          </mxGeometry>
        </mxCell>
        <mxCell id="z59xVNprrhD9sg6fMXi5-44" style="edgeStyle=orthogonalEdgeStyle;rounded=0;orthogonalLoop=1;jettySize=auto;html=1;" edge="1" parent="1" source="z59xVNprrhD9sg6fMXi5-25" target="z59xVNprrhD9sg6fMXi5-43">
          <mxGeometry relative="1" as="geometry" />
        </mxCell>
        <mxCell id="z59xVNprrhD9sg6fMXi5-45" value="FALSE" style="edgeLabel;html=1;align=center;verticalAlign=middle;resizable=0;points=[];" vertex="1" connectable="0" parent="z59xVNprrhD9sg6fMXi5-44">
          <mxGeometry x="-0.34" y="1" relative="1" as="geometry">
            <mxPoint as="offset" />
          </mxGeometry>
        </mxCell>
        <mxCell id="z59xVNprrhD9sg6fMXi5-25" value="n &amp;gt; 0" style="rhombus;whiteSpace=wrap;html=1;" vertex="1" parent="1">
          <mxGeometry x="320" y="980" width="120" height="80" as="geometry" />
        </mxCell>
        <mxCell id="z59xVNprrhD9sg6fMXi5-34" style="edgeStyle=orthogonalEdgeStyle;rounded=0;orthogonalLoop=1;jettySize=auto;html=1;entryX=0;entryY=0.5;entryDx=0;entryDy=0;" edge="1" parent="1" source="z59xVNprrhD9sg6fMXi5-30" target="z59xVNprrhD9sg6fMXi5-33">
          <mxGeometry relative="1" as="geometry" />
        </mxCell>
        <mxCell id="z59xVNprrhD9sg6fMXi5-30" value="positivi += 1" style="rounded=0;whiteSpace=wrap;html=1;" vertex="1" parent="1">
          <mxGeometry x="520" y="990" width="120" height="60" as="geometry" />
        </mxCell>
        <mxCell id="z59xVNprrhD9sg6fMXi5-35" style="edgeStyle=orthogonalEdgeStyle;rounded=0;orthogonalLoop=1;jettySize=auto;html=1;entryX=0;entryY=0.5;entryDx=0;entryDy=0;" edge="1" parent="1" source="z59xVNprrhD9sg6fMXi5-33" target="z59xVNprrhD9sg6fMXi5-36">
          <mxGeometry relative="1" as="geometry">
            <mxPoint x="840" y="1020" as="targetPoint" />
          </mxGeometry>
        </mxCell>
        <mxCell id="z59xVNprrhD9sg6fMXi5-38" value="TRUE" style="edgeLabel;html=1;align=center;verticalAlign=middle;resizable=0;points=[];" vertex="1" connectable="0" parent="z59xVNprrhD9sg6fMXi5-35">
          <mxGeometry x="-0.1933" y="-3" relative="1" as="geometry">
            <mxPoint x="3" y="-3" as="offset" />
          </mxGeometry>
        </mxCell>
        <mxCell id="z59xVNprrhD9sg6fMXi5-40" style="edgeStyle=orthogonalEdgeStyle;rounded=0;orthogonalLoop=1;jettySize=auto;html=1;entryX=0.5;entryY=1;entryDx=0;entryDy=0;" edge="1" parent="1" source="z59xVNprrhD9sg6fMXi5-33" target="z59xVNprrhD9sg6fMXi5-39">
          <mxGeometry relative="1" as="geometry" />
        </mxCell>
        <mxCell id="z59xVNprrhD9sg6fMXi5-33" value="n % 2 == 0 AND&lt;div&gt;n &amp;gt; 20&lt;/div&gt;" style="rhombus;whiteSpace=wrap;html=1;" vertex="1" parent="1">
          <mxGeometry x="680" y="980" width="120" height="80" as="geometry" />
        </mxCell>
        <mxCell id="z59xVNprrhD9sg6fMXi5-41" style="edgeStyle=orthogonalEdgeStyle;rounded=0;orthogonalLoop=1;jettySize=auto;html=1;entryX=1;entryY=0.5;entryDx=0;entryDy=0;" edge="1" parent="1" source="z59xVNprrhD9sg6fMXi5-61" target="z59xVNprrhD9sg6fMXi5-39">
          <mxGeometry relative="1" as="geometry">
            <Array as="points" />
          </mxGeometry>
        </mxCell>
        <mxCell id="z59xVNprrhD9sg6fMXi5-63" style="edgeStyle=orthogonalEdgeStyle;rounded=0;orthogonalLoop=1;jettySize=auto;html=1;entryX=0.5;entryY=1;entryDx=0;entryDy=0;" edge="1" parent="1" source="z59xVNprrhD9sg6fMXi5-36" target="z59xVNprrhD9sg6fMXi5-61">
          <mxGeometry relative="1" as="geometry" />
        </mxCell>
        <mxCell id="z59xVNprrhD9sg6fMXi5-36" value="positivi_maggiori += 1" style="rounded=0;whiteSpace=wrap;html=1;" vertex="1" parent="1">
          <mxGeometry x="860" y="990" width="120" height="60" as="geometry" />
        </mxCell>
        <mxCell id="z59xVNprrhD9sg6fMXi5-42" style="edgeStyle=orthogonalEdgeStyle;rounded=0;orthogonalLoop=1;jettySize=auto;html=1;entryX=1;entryY=0.5;entryDx=0;entryDy=0;" edge="1" parent="1" source="z59xVNprrhD9sg6fMXi5-39" target="z59xVNprrhD9sg6fMXi5-14">
          <mxGeometry relative="1" as="geometry" />
        </mxCell>
        <mxCell id="z59xVNprrhD9sg6fMXi5-39" value="" style="ellipse;whiteSpace=wrap;html=1;aspect=fixed;" vertex="1" parent="1">
          <mxGeometry x="730" y="690" width="20" height="20" as="geometry" />
        </mxCell>
        <mxCell id="z59xVNprrhD9sg6fMXi5-47" style="edgeStyle=orthogonalEdgeStyle;rounded=0;orthogonalLoop=1;jettySize=auto;html=1;entryX=0;entryY=0.5;entryDx=0;entryDy=0;" edge="1" parent="1" source="z59xVNprrhD9sg6fMXi5-43" target="z59xVNprrhD9sg6fMXi5-46">
          <mxGeometry relative="1" as="geometry" />
        </mxCell>
        <mxCell id="z59xVNprrhD9sg6fMXi5-48" value="TRUE" style="edgeLabel;html=1;align=center;verticalAlign=middle;resizable=0;points=[];" vertex="1" connectable="0" parent="z59xVNprrhD9sg6fMXi5-47">
          <mxGeometry x="-0.07" relative="1" as="geometry">
            <mxPoint as="offset" />
          </mxGeometry>
        </mxCell>
        <mxCell id="z59xVNprrhD9sg6fMXi5-79" style="edgeStyle=orthogonalEdgeStyle;rounded=0;orthogonalLoop=1;jettySize=auto;html=1;entryX=0;entryY=0.5;entryDx=0;entryDy=0;" edge="1" parent="1" source="z59xVNprrhD9sg6fMXi5-43" target="z59xVNprrhD9sg6fMXi5-72">
          <mxGeometry relative="1" as="geometry">
            <mxPoint x="380" y="1250" as="targetPoint" />
            <Array as="points">
              <mxPoint x="380" y="1220" />
              <mxPoint x="381" y="1220" />
              <mxPoint x="381" y="1250" />
            </Array>
          </mxGeometry>
        </mxCell>
        <mxCell id="z59xVNprrhD9sg6fMXi5-80" value="FALSE" style="edgeLabel;html=1;align=center;verticalAlign=middle;resizable=0;points=[];" vertex="1" connectable="0" parent="z59xVNprrhD9sg6fMXi5-79">
          <mxGeometry x="-0.7971" y="-1" relative="1" as="geometry">
            <mxPoint as="offset" />
          </mxGeometry>
        </mxCell>
        <mxCell id="z59xVNprrhD9sg6fMXi5-43" value="n &amp;lt; 0" style="rhombus;whiteSpace=wrap;html=1;" vertex="1" parent="1">
          <mxGeometry x="320" y="1100" width="120" height="80" as="geometry" />
        </mxCell>
        <mxCell id="z59xVNprrhD9sg6fMXi5-50" style="edgeStyle=orthogonalEdgeStyle;rounded=0;orthogonalLoop=1;jettySize=auto;html=1;entryX=0;entryY=0.5;entryDx=0;entryDy=0;" edge="1" parent="1" source="z59xVNprrhD9sg6fMXi5-46" target="z59xVNprrhD9sg6fMXi5-49">
          <mxGeometry relative="1" as="geometry" />
        </mxCell>
        <mxCell id="z59xVNprrhD9sg6fMXi5-46" value="negativi += 1" style="rounded=0;whiteSpace=wrap;html=1;" vertex="1" parent="1">
          <mxGeometry x="520" y="1110" width="120" height="60" as="geometry" />
        </mxCell>
        <mxCell id="z59xVNprrhD9sg6fMXi5-51" style="edgeStyle=orthogonalEdgeStyle;rounded=0;orthogonalLoop=1;jettySize=auto;html=1;" edge="1" parent="1" source="z59xVNprrhD9sg6fMXi5-49">
          <mxGeometry relative="1" as="geometry">
            <mxPoint x="860" y="1140" as="targetPoint" />
          </mxGeometry>
        </mxCell>
        <mxCell id="z59xVNprrhD9sg6fMXi5-52" value="TRUE" style="edgeLabel;html=1;align=center;verticalAlign=middle;resizable=0;points=[];" vertex="1" connectable="0" parent="z59xVNprrhD9sg6fMXi5-51">
          <mxGeometry x="-0.286" y="1" relative="1" as="geometry">
            <mxPoint as="offset" />
          </mxGeometry>
        </mxCell>
        <mxCell id="z59xVNprrhD9sg6fMXi5-73" style="edgeStyle=orthogonalEdgeStyle;rounded=0;orthogonalLoop=1;jettySize=auto;html=1;entryX=0.5;entryY=0;entryDx=0;entryDy=0;" edge="1" parent="1" source="z59xVNprrhD9sg6fMXi5-49" target="z59xVNprrhD9sg6fMXi5-72">
          <mxGeometry relative="1" as="geometry" />
        </mxCell>
        <mxCell id="z59xVNprrhD9sg6fMXi5-78" value="FALSE" style="edgeLabel;html=1;align=center;verticalAlign=middle;resizable=0;points=[];" vertex="1" connectable="0" parent="z59xVNprrhD9sg6fMXi5-73">
          <mxGeometry x="-0.1781" y="2" relative="1" as="geometry">
            <mxPoint as="offset" />
          </mxGeometry>
        </mxCell>
        <mxCell id="z59xVNprrhD9sg6fMXi5-49" value="n % 2 == 1 AND&lt;div&gt;n &amp;lt; -10&lt;/div&gt;" style="rhombus;whiteSpace=wrap;html=1;" vertex="1" parent="1">
          <mxGeometry x="680" y="1100" width="120" height="80" as="geometry" />
        </mxCell>
        <mxCell id="z59xVNprrhD9sg6fMXi5-54" style="edgeStyle=orthogonalEdgeStyle;rounded=0;orthogonalLoop=1;jettySize=auto;html=1;" edge="1" parent="1" source="z59xVNprrhD9sg6fMXi5-53">
          <mxGeometry relative="1" as="geometry">
            <mxPoint x="1040" y="1139" as="targetPoint" />
          </mxGeometry>
        </mxCell>
        <mxCell id="z59xVNprrhD9sg6fMXi5-53" value="negativi_minori += 1" style="rounded=0;whiteSpace=wrap;html=1;" vertex="1" parent="1">
          <mxGeometry x="860" y="1109" width="120" height="60" as="geometry" />
        </mxCell>
        <mxCell id="z59xVNprrhD9sg6fMXi5-64" style="edgeStyle=orthogonalEdgeStyle;rounded=0;orthogonalLoop=1;jettySize=auto;html=1;entryX=1;entryY=0.5;entryDx=0;entryDy=0;" edge="1" parent="1" source="z59xVNprrhD9sg6fMXi5-55" target="z59xVNprrhD9sg6fMXi5-61">
          <mxGeometry relative="1" as="geometry">
            <Array as="points">
              <mxPoint x="1050" y="700" />
            </Array>
          </mxGeometry>
        </mxCell>
        <mxCell id="z59xVNprrhD9sg6fMXi5-55" value="" style="ellipse;whiteSpace=wrap;html=1;aspect=fixed;" vertex="1" parent="1">
          <mxGeometry x="1040" y="1129" width="20" height="20" as="geometry" />
        </mxCell>
        <mxCell id="z59xVNprrhD9sg6fMXi5-61" value="" style="ellipse;whiteSpace=wrap;html=1;aspect=fixed;" vertex="1" parent="1">
          <mxGeometry x="910" y="690" width="20" height="20" as="geometry" />
        </mxCell>
        <mxCell id="z59xVNprrhD9sg6fMXi5-67" value="" style="ellipse;whiteSpace=wrap;html=1;aspect=fixed;" vertex="1" parent="1">
          <mxGeometry x="1040" y="1129" width="20" height="20" as="geometry" />
        </mxCell>
        <mxCell id="z59xVNprrhD9sg6fMXi5-75" style="edgeStyle=orthogonalEdgeStyle;rounded=0;orthogonalLoop=1;jettySize=auto;html=1;entryX=0.5;entryY=1;entryDx=0;entryDy=0;" edge="1" parent="1" source="z59xVNprrhD9sg6fMXi5-68" target="z59xVNprrhD9sg6fMXi5-67">
          <mxGeometry relative="1" as="geometry" />
        </mxCell>
        <mxCell id="z59xVNprrhD9sg6fMXi5-68" value="" style="ellipse;whiteSpace=wrap;html=1;aspect=fixed;" vertex="1" parent="1">
          <mxGeometry x="1040" y="1240" width="20" height="20" as="geometry" />
        </mxCell>
        <mxCell id="z59xVNprrhD9sg6fMXi5-74" style="edgeStyle=orthogonalEdgeStyle;rounded=0;orthogonalLoop=1;jettySize=auto;html=1;entryX=0;entryY=0.5;entryDx=0;entryDy=0;" edge="1" parent="1" source="z59xVNprrhD9sg6fMXi5-72" target="z59xVNprrhD9sg6fMXi5-68">
          <mxGeometry relative="1" as="geometry" />
        </mxCell>
        <mxCell id="z59xVNprrhD9sg6fMXi5-72" value="" style="ellipse;whiteSpace=wrap;html=1;aspect=fixed;" vertex="1" parent="1">
          <mxGeometry x="730" y="1240" width="20" height="20" as="geometry" />
        </mxCell>
        <mxCell id="z59xVNprrhD9sg6fMXi5-85" style="edgeStyle=orthogonalEdgeStyle;rounded=0;orthogonalLoop=1;jettySize=auto;html=1;entryX=0.5;entryY=0;entryDx=0;entryDy=0;" edge="1" parent="1" source="z59xVNprrhD9sg6fMXi5-83" target="z59xVNprrhD9sg6fMXi5-84">
          <mxGeometry relative="1" as="geometry" />
        </mxCell>
        <mxCell id="z59xVNprrhD9sg6fMXi5-83" value="Write positivi, negativi,&amp;nbsp;&lt;div&gt;positivi_maggiori,&lt;/div&gt;&lt;div&gt;negativi_minori&lt;/div&gt;" style="shape=parallelogram;perimeter=parallelogramPerimeter;whiteSpace=wrap;html=1;fixedSize=1;" vertex="1" parent="1">
          <mxGeometry x="90" y="660" width="160" height="80" as="geometry" />
        </mxCell>
        <mxCell id="z59xVNprrhD9sg6fMXi5-84" value="END" style="ellipse;whiteSpace=wrap;html=1;" vertex="1" parent="1">
          <mxGeometry x="110" y="770" width="120" height="80" as="geometry" />
        </mxCell>
      </root>
    </mxGraphModel>
  </diagram>
</mxfile>
